<svg xmlns="http://www.w3.org/2000/svg" version="1.1" xmlns:xlink="http://www.w3.org/1999/xlink" width="1500" height="1500" viewBox="0 0 1500 1500"><rect width="1500" height="1500" x="0" y="0" id="background" stroke="transparent" fill="#ffffff"></rect><svg xml:space="preserve" width="1000" height="1000" data-version="2" data-id="lg_TzQACOcV46VY85jQR0" viewBox="0 0 661 159" x="250" y="250"><rect width="100%" height="100%" fill="transparent"></rect><path d="M84.714 57.835v-7.21h36.08v7.21h-14.18v50.19h-7.71v-50.19Z"></path><rect width="36.08" height="57.4" x="-18.04" y="-28.7" fill="none" rx="0" ry="0" transform="translate(103.25 79.83)"></rect><path d="M128.174 108.025v-37.31q0-9.93 4.88-15.42t13.9-5.49q9.1 0 13.98 4.42 4.88 4.43 4.88 12.47 0 5.16-2.46 8.44-2.46 3.28-8.36 5.17v.33q6.15 2.38 8.24 6.76 2.09 4.39 2.09 14.48v6.15h-7.71v-10.5q0-6.23-3.52-9.72-3.53-3.48-10.17-3.48h-4.43v-7.22h4.67q7.88 0 10.91-3.2 3.03-3.19 3.03-7.62 0-4.18-2.99-6.73-2.99-2.54-7.91-2.54-5.66 0-8.49 3.2t-2.83 10.5v37.31Z"></path><rect width="37.64" height="58.22" x="-18.82" y="-29.11" fill="none" rx="0" ry="0" transform="translate(147.5 79.42)"></rect><path d="M204.604 50.625v7.21h-14.52q-8.28 0-8.28 6.73 0 3.6 3.65 6.11 3.65 2.5 9.88 4.79 2.79 1.07 4.76 2.18 1.97 1.1 3.93 2.91 1.97 1.8 2.96 4.63.98 2.83.98 6.52 0 4.1-1.72 7.34t-4.43 5.08q-2.71 1.85-5.54 2.79-2.82.94-5.53 1.02-1.15.09-3.28.09h-12.79v-7.22h12.54q5.58 0 9.11-2.34 3.52-2.33 3.52-6.84 0-2.22-.98-3.9-.99-1.68-2.83-2.91-1.85-1.23-3.77-2.13-1.93-.9-4.64-1.89-.73-.24-1.14-.41-12.88-4.92-12.88-16.07 0-6.89 4.43-10.29 4.43-3.4 11.56-3.4Z"></path><rect width="34.36" height="57.4" x="-17.18" y="-28.7" fill="none" rx="0" ry="0" transform="translate(191.28 79.83)"></rect><path fill="#7b7b7b" d="M162.933 31.934V1.396H6.726v156.207h156.207v-30.538h-2.543v27.995H9.27V3.94h151.12v27.994z"></path><path d="M175.924 147.315h-3.42v-26.26h-9.21v-3h21.8v3h-9.17Z"></path><rect width="21.8" height="29.26" x="-10.9" y="-14.63" fill="none" rx="0" ry="0" transform="translate(174.7 133.19)"></rect><path d="M211.704 147.315h-3.41v-13.79h-15.37v13.79h-3.4v-29.26h3.4v12.47h15.37v-12.47h3.41Z"></path><rect width="22.18" height="29.26" x="-11.09" y="-14.63" fill="none" rx="0" ry="0" transform="translate(201.11 133.19)"></rect><path d="M236.044 147.315h-16.29v-29.26h16.29v3h-12.89v9.47h12.15v2.96h-12.15v10.83h12.89Z"></path><rect width="16.29" height="29.26" x="-8.14" y="-14.63" fill="none" rx="0" ry="0" transform="translate(228.4 133.19)"></rect><path d="M261.094 118.055q3.6 0 5.95.89t3.52 2.71q1.16 1.82 1.16 4.64 0 2.33-.84 3.88-.85 1.55-2.21 2.51-1.36.96-2.9 1.48l8.03 13.15h-3.97l-7.16-12.21h-6.09v12.21h-3.4v-29.26Zm-.2 2.94h-4.31v11.23h4.65q3.58 0 5.27-1.46 1.69-1.46 1.69-4.31 0-2.98-1.79-4.22-1.79-1.24-5.51-1.24"></path><rect width="20.62" height="29.26" x="-10.31" y="-14.63" fill="none" rx="0" ry="0" transform="translate(264 133.19)"></rect><path d="M294.784 147.315h-16.3v-29.26h16.3v3h-12.89v9.47h12.15v2.96h-12.15v10.83h12.89Z"></path><rect width="16.3" height="29.26" x="-8.15" y="-14.63" fill="none" rx="0" ry="0" transform="translate(287.13 133.19)"></rect><path d="m321.704 118.055-10.51 29.26h-3.42l-10.51-29.26h3.56l6.85 19.28q.42 1.16.75 2.22.33 1.06.59 2.04.26.98.46 1.9.2-.92.46-1.91.26-.99.6-2.06.34-1.07.76-2.26l6.81-19.21Z"></path><rect width="24.44" height="29.26" x="-12.22" y="-14.63" fill="none" rx="0" ry="0" transform="translate(309.98 133.19)"></rect><path d="M342.004 147.315h-16.29v-29.26h16.29v3h-12.89v9.47h12.15v2.96h-12.15v10.83h12.89Z"></path><rect width="16.29" height="29.26" x="-8.14" y="-14.63" fill="none" rx="0" ry="0" transform="translate(334.36 133.19)"></rect><path d="M370.634 118.055v18.93q0 3.11-1.25 5.53-1.25 2.42-3.77 3.81-2.52 1.4-6.33 1.4-5.42 0-8.26-2.95-2.83-2.94-2.83-7.87v-18.85h3.42v18.95q0 3.73 1.98 5.75 1.97 2.02 5.89 2.02 2.68 0 4.4-.97 1.71-.97 2.54-2.72.83-1.75.83-4.06v-18.97Z"></path><rect width="22.44" height="29.67" x="-11.22" y="-14.84" fill="none" rx="0" ry="0" transform="translate(359.91 133.39)"></rect><path d="M394.904 139.535q0 2.6-1.29 4.43-1.3 1.83-3.62 2.79-2.32.97-5.46.97-1.67 0-3.15-.16-1.48-.17-2.72-.47-1.24-.3-2.18-.74v-3.26q1.5.62 3.66 1.15 2.16.53 4.53.53 2.2 0 3.72-.59t2.31-1.7q.79-1.11.79-2.67 0-1.5-.66-2.52-.66-1.01-2.19-1.84-1.53-.83-4.17-1.77-1.87-.66-3.29-1.45-1.42-.79-2.38-1.79t-1.45-2.32q-.49-1.33-.49-3.03 0-2.34 1.19-4.01t3.3-2.56q2.12-.89 4.86-.89 2.34 0 4.33.44 1.99.44 3.66 1.18l-1.07 2.92q-1.58-.66-3.35-1.1-1.77-.44-3.65-.44t-3.18.55q-1.29.55-1.97 1.55-.68 1-.68 2.38 0 1.54.65 2.57.65 1.02 2.08 1.81 1.44.79 3.8 1.65 2.58.94 4.38 1.99 1.8 1.05 2.75 2.56.94 1.51.94 3.84"></path><rect width="18.42" height="30.09" x="-9.21" y="-15.04" fill="none" rx="0" ry="0" transform="translate(386.2 133.18)"></rect><path d="M417.164 147.315h-16.3v-29.26h16.3v3h-12.89v9.47h12.15v2.96h-12.15v10.83h12.89Z"></path><rect width="16.3" height="29.26" x="-8.15" y="-14.63" fill="none" rx="0" ry="0" transform="translate(409.51 133.19)"></rect><path d="M450.814 139.535q0 2.6-1.29 4.43-1.29 1.83-3.61 2.79-2.33.97-5.47.97-1.66 0-3.14-.16-1.48-.17-2.72-.47-1.25-.3-2.19-.74v-3.26q1.5.62 3.67 1.15 2.16.53 4.52.53 2.2 0 3.72-.59 1.53-.59 2.32-1.7.79-1.11.79-2.67 0-1.5-.66-2.52-.66-1.01-2.2-1.84-1.53-.83-4.17-1.77-1.86-.66-3.28-1.45-1.42-.79-2.38-1.79-.97-1-1.46-2.32-.49-1.33-.49-3.03 0-2.34 1.19-4.01 1.2-1.67 3.31-2.56 2.11-.89 4.85-.89 2.34 0 4.34.44 1.99.44 3.65 1.18l-1.06 2.92q-1.58-.66-3.35-1.1-1.78-.44-3.66-.44-1.88 0-3.17.55t-1.97 1.55q-.68 1-.68 2.38 0 1.54.65 2.57.65 1.02 2.08 1.81 1.43.79 3.79 1.65 2.59.94 4.39 1.99 1.8 1.05 2.74 2.56.94 1.51.94 3.84"></path><rect width="18.42" height="30.09" x="-9.21" y="-15.04" fill="none" rx="0" ry="0" transform="translate(442.1 133.18)"></rect><path d="M482.164 132.645q0 3.38-.86 6.16-.86 2.77-2.55 4.76-1.69 1.99-4.2 3.07-2.5 1.09-5.8 1.09-3.4 0-5.94-1.09-2.53-1.08-4.2-3.08-1.67-2-2.5-4.78-.83-2.79-.83-6.17 0-4.48 1.48-7.87 1.48-3.38 4.49-5.26 3.01-1.88 7.56-1.88 4.34 0 7.32 1.86 2.97 1.86 4.5 5.23 1.53 3.38 1.53 7.96m-23.3 0q0 3.72 1.06 6.45 1.06 2.72 3.25 4.2 2.2 1.48 5.58 1.48 3.4 0 5.57-1.48 2.18-1.48 3.22-4.2 1.04-2.73 1.04-6.45 0-5.67-2.37-8.86-2.38-3.19-7.4-3.19-3.4 0-5.61 1.46-2.2 1.46-3.27 4.15-1.07 2.7-1.07 6.44"></path><rect width="26.88" height="30.13" x="-13.44" y="-15.06" fill="none" rx="0" ry="0" transform="translate(469.22 133.16)"></rect><path d="M488.674 147.315v-29.26h3.4v26.22h12.99v3.04Z"></path><rect width="16.39" height="29.26" x="-8.2" y="-14.63" fill="none" rx="0" ry="0" transform="translate(497.37 133.19)"></rect><path d="M532.214 118.055v18.93q0 3.11-1.25 5.53-1.25 2.42-3.77 3.81-2.53 1.4-6.33 1.4-5.43 0-8.26-2.95-2.83-2.94-2.83-7.87v-18.85h3.42v18.95q0 3.73 1.97 5.75 1.98 2.02 5.9 2.02 2.68 0 4.39-.97 1.72-.97 2.55-2.72.83-1.75.83-4.06v-18.97Z"></path><rect width="22.44" height="29.67" x="-11.22" y="-14.84" fill="none" rx="0" ry="0" transform="translate(521.5 133.39)"></rect><path d="M548.954 147.315h-3.43v-26.26h-9.21v-3h21.81v3h-9.17Z"></path><rect width="21.81" height="29.26" x="-10.9" y="-14.63" fill="none" rx="0" ry="0" transform="translate(547.72 133.19)"></rect><path d="M562.544 147.315v-29.26h3.4v29.26Z"></path><rect width="3.4" height="29.26" x="-1.7" y="-14.63" fill="none" rx="0" ry="0" transform="translate(564.74 133.19)"></rect><path d="M599.384 132.645q0 3.38-.86 6.16-.87 2.77-2.56 4.76-1.69 1.99-4.19 3.07-2.5 1.09-5.81 1.09-3.4 0-5.93-1.09-2.54-1.08-4.21-3.08t-2.5-4.78q-.83-2.79-.83-6.17 0-4.48 1.48-7.87 1.48-3.38 4.5-5.26 3.01-1.88 7.55-1.88 4.35 0 7.32 1.86 2.97 1.86 4.5 5.23 1.54 3.38 1.54 7.96m-23.31 0q0 3.72 1.06 6.45 1.07 2.72 3.26 4.2 2.19 1.48 5.57 1.48 3.41 0 5.58-1.48t3.21-4.2q1.04-2.73 1.04-6.45 0-5.67-2.37-8.86-2.37-3.19-7.4-3.19-3.4 0-5.6 1.46-2.2 1.46-3.28 4.15-1.07 2.7-1.07 6.44"></path><rect width="26.89" height="30.13" x="-13.45" y="-15.06" fill="none" rx="0" ry="0" transform="translate(586.44 133.16)"></rect><path d="M628.764 147.315h-3.92l-15.95-24.58h-.17q.07.98.15 2.23.08 1.25.13 2.67.05 1.41.05 2.87v16.81h-3.17v-29.26h3.91l15.89 24.5h.14q-.04-.7-.1-1.99-.06-1.29-.11-2.78-.05-1.5-.05-2.78v-16.95h3.2Z"></path><rect width="22.88" height="29.26" x="-11.44" y="-14.63" fill="none" rx="0" ry="0" transform="translate(617.82 133.19)"></rect><path d="M653.274 139.535q0 2.6-1.29 4.43-1.29 1.83-3.62 2.79-2.32.97-5.46.97-1.66 0-3.14-.16-1.49-.17-2.73-.47-1.24-.3-2.18-.74v-3.26q1.5.62 3.66 1.15 2.17.53 4.53.53 2.2 0 3.72-.59t2.31-1.7q.8-1.11.8-2.67 0-1.5-.67-2.52-.66-1.01-2.19-1.84-1.53-.83-4.17-1.77-1.86-.66-3.28-1.45-1.43-.79-2.39-1.79-.96-1-1.45-2.32-.49-1.33-.49-3.03 0-2.34 1.19-4.01t3.31-2.56q2.11-.89 4.85-.89 2.34 0 4.33.44 2 .44 3.66 1.18l-1.06 2.92q-1.58-.66-3.36-1.1-1.77-.44-3.65-.44t-3.17.55q-1.29.55-1.98 1.55-.68 1-.68 2.38 0 1.54.65 2.57.66 1.02 2.09 1.81 1.43.79 3.79 1.65 2.58.94 4.38 1.99 1.81 1.05 2.75 2.56t.94 3.84"></path><rect width="18.42" height="30.09" x="-9.21" y="-15.04" fill="none" rx="0" ry="0" transform="translate(644.56 133.18)"></rect></svg></svg>